<mxfile host="app.diagrams.net" modified="2023-11-21T19:23:03.530Z" agent="Mozilla/5.0 (Windows NT 10.0; Win64; x64) AppleWebKit/537.36 (KHTML, like Gecko) Chrome/119.0.0.0 Safari/537.36" etag="0LyOZ_OJm9Qz7OTxAtRR" version="22.1.3" type="github">
  <diagram name="Page-1" id="KPDfs5Kcc8wOUKfkbuWf">
    <mxGraphModel dx="794" dy="464" grid="1" gridSize="10" guides="1" tooltips="1" connect="1" arrows="1" fold="1" page="1" pageScale="1" pageWidth="850" pageHeight="1100" math="0" shadow="0">
      <root>
        <mxCell id="0" />
        <mxCell id="1" parent="0" />
        <mxCell id="zxfCZuzH31YU9lyxvgSR-2" style="edgeStyle=orthogonalEdgeStyle;rounded=0;orthogonalLoop=1;jettySize=auto;html=1;" edge="1" parent="1" source="zxfCZuzH31YU9lyxvgSR-1">
          <mxGeometry relative="1" as="geometry">
            <mxPoint x="390" y="120" as="targetPoint" />
          </mxGeometry>
        </mxCell>
        <mxCell id="zxfCZuzH31YU9lyxvgSR-1" value="&lt;font style=&quot;font-size: 15px;&quot;&gt;srart&lt;/font&gt;" style="rounded=1;whiteSpace=wrap;html=1;" vertex="1" parent="1">
          <mxGeometry x="330" y="10" width="120" height="60" as="geometry" />
        </mxCell>
        <mxCell id="zxfCZuzH31YU9lyxvgSR-4" style="edgeStyle=orthogonalEdgeStyle;rounded=0;orthogonalLoop=1;jettySize=auto;html=1;" edge="1" parent="1" source="zxfCZuzH31YU9lyxvgSR-3">
          <mxGeometry relative="1" as="geometry">
            <mxPoint x="395" y="250" as="targetPoint" />
          </mxGeometry>
        </mxCell>
        <mxCell id="zxfCZuzH31YU9lyxvgSR-3" value="length, width" style="shape=card;whiteSpace=wrap;html=1;" vertex="1" parent="1">
          <mxGeometry x="310" y="120" width="170" height="80" as="geometry" />
        </mxCell>
        <mxCell id="zxfCZuzH31YU9lyxvgSR-7" value="" style="edgeStyle=orthogonalEdgeStyle;rounded=0;orthogonalLoop=1;jettySize=auto;html=1;" edge="1" parent="1" source="zxfCZuzH31YU9lyxvgSR-5" target="zxfCZuzH31YU9lyxvgSR-6">
          <mxGeometry relative="1" as="geometry" />
        </mxCell>
        <mxCell id="zxfCZuzH31YU9lyxvgSR-5" value="area=length*width&lt;br&gt;per=(length+width)*2" style="rounded=0;whiteSpace=wrap;html=1;" vertex="1" parent="1">
          <mxGeometry x="312.5" y="250" width="165" height="60" as="geometry" />
        </mxCell>
        <mxCell id="zxfCZuzH31YU9lyxvgSR-8" style="edgeStyle=orthogonalEdgeStyle;rounded=0;orthogonalLoop=1;jettySize=auto;html=1;" edge="1" parent="1" source="zxfCZuzH31YU9lyxvgSR-6" target="zxfCZuzH31YU9lyxvgSR-9">
          <mxGeometry relative="1" as="geometry">
            <mxPoint x="390" y="480" as="targetPoint" />
          </mxGeometry>
        </mxCell>
        <mxCell id="zxfCZuzH31YU9lyxvgSR-6" value="area, per" style="shape=document;whiteSpace=wrap;html=1;boundedLbl=1;" vertex="1" parent="1">
          <mxGeometry x="330" y="360" width="120" height="80" as="geometry" />
        </mxCell>
        <mxCell id="zxfCZuzH31YU9lyxvgSR-9" value="stop" style="rounded=1;whiteSpace=wrap;html=1;" vertex="1" parent="1">
          <mxGeometry x="330" y="490" width="120" height="60" as="geometry" />
        </mxCell>
      </root>
    </mxGraphModel>
  </diagram>
</mxfile>
